<svg xmlns="http://www.w3.org/2000/svg" viewBox="0 0 400 400" width="512" height="512" role="img" aria-label="LINKIMPACT">
  <rect width="400" height="400" fill="#ffffff"/>
  <path fill="#43B97C" d="M40 40h150v50h20V40h150v245h-50v50H90v-50H40V40zm50 50v50h50V90H90zm170 0v50h50V90h-50zM90 190v50h50v-50H90zm170 0v50h50v-50h-50zm50 50h-50v50H140v-50H90v45h50v50h120v-50h50v-45z"/>
  <rect x="90" y="90" width="50" height="50" fill="#050606"/>
  <rect x="260" y="90" width="50" height="50" fill="#050606"/>
  <rect x="90" y="190" width="50" height="50" fill="#050606"/>
  <rect x="260" y="190" width="50" height="50" fill="#050606"/>
  <rect x="140" y="240" width="120" height="50" fill="#050606"/>
</svg>
